<svg width="328" height="146" viewBox="0 0 328 146" fill="none" xmlns="http://www.w3.org/2000/svg">
<path d="M5.184 64V19.392H28.48V26.368H13.184V36.8H25.344V43.584H13.184V56.768H29.76V64H5.184ZM14.432 15.232L20.704 3.52H28.576L20.576 15.232H14.432ZM61.338 64.224L43.61 19.392H52.506L59.546 39.04L62.01 46.496L64.474 39.04L71.258 19.392H80.026L62.362 64.224H61.338ZM84.559 64V19.392H107.855V26.368H92.559V36.8H104.719V43.584H92.559V56.768H109.135V64H84.559ZM145.518 64H135.598L124.142 47.872V64H116.014V19.392H128.43C131.459 19.392 134.168 19.84 136.558 20.736C138.947 21.6107 140.835 23.0827 142.222 25.152C143.608 27.2213 144.302 30.0373 144.302 33.6C144.302 35.5413 143.971 37.5467 143.31 39.616C142.67 41.664 141.592 43.4987 140.078 45.12C138.584 46.7413 136.558 47.872 133.998 48.512L145.518 64ZM124.142 43.84H127.534C129.411 43.84 130.979 43.4027 132.238 42.528C133.518 41.632 134.478 40.4693 135.118 39.04C135.779 37.5893 136.11 36.032 136.11 34.368C136.11 31.488 135.448 29.344 134.126 27.936C132.803 26.5067 130.542 25.792 127.342 25.792H124.142V43.84ZM152.809 64V19.392H164.329C170.793 19.392 175.774 21.2053 179.273 24.832C182.793 28.4373 184.553 33.8773 184.553 41.152C184.553 45.8027 183.774 49.8453 182.217 53.28C180.66 56.6933 178.366 59.3387 175.337 61.216C172.329 63.072 168.638 64 164.265 64H152.809ZM164.073 25.792H161.065V56.96H164.073C166.42 56.96 168.372 56.5227 169.929 55.648C171.486 54.752 172.724 53.568 173.641 52.096C174.58 50.6027 175.241 48.928 175.625 47.072C176.03 45.1947 176.233 43.2853 176.233 41.344C176.233 38.656 175.86 36.128 175.113 33.76C174.366 31.392 173.108 29.472 171.337 28C169.566 26.528 167.145 25.792 164.073 25.792ZM184.912 64L203.792 18.624H204.432L223.376 64H214.672L212.176 57.536H196.24L193.872 64H184.912ZM203.024 39.168L198.544 51.328H209.808L205.136 39.168L204.048 35.584L203.024 39.168ZM227.247 64V19.392H238.767C245.231 19.392 250.212 21.2053 253.711 24.832C257.231 28.4373 258.991 33.8773 258.991 41.152C258.991 45.8027 258.212 49.8453 256.655 53.28C255.097 56.6933 252.804 59.3387 249.775 61.216C246.767 63.072 243.076 64 238.703 64H227.247ZM238.51 25.792H235.503V56.96H238.51C240.857 56.96 242.809 56.5227 244.367 55.648C245.924 54.752 247.161 53.568 248.079 52.096C249.017 50.6027 249.679 48.928 250.063 47.072C250.468 45.1947 250.671 43.2853 250.671 41.344C250.671 38.656 250.297 36.128 249.551 33.76C248.804 31.392 247.545 29.472 245.775 28C244.004 26.528 241.583 25.792 238.51 25.792ZM265.872 64V19.392H289.168V26.368H273.872V36.8H286.032V43.584H273.872V56.768H290.448V64H265.872Z" fill="#FFD54F"/>
<path d="M118.184 128V83.392H126.376V128H118.184ZM146.929 128.704C143.793 128.704 141.051 128.181 138.705 127.136C136.358 126.091 134.641 124.992 133.553 123.84L136.817 117.12C137.265 117.696 137.969 118.347 138.929 119.072C139.91 119.797 141.041 120.437 142.321 120.992C143.622 121.525 144.966 121.792 146.353 121.792C147.953 121.792 149.339 121.344 150.513 120.448C151.707 119.552 152.305 118.229 152.305 116.48C152.305 114.752 151.686 113.387 150.449 112.384C149.233 111.36 147.569 110.208 145.457 108.928C143.729 107.883 142.033 106.773 140.369 105.6C138.705 104.405 137.318 102.955 136.209 101.248C135.121 99.52 134.577 97.344 134.577 94.72C134.577 91.2 135.697 88.3093 137.937 86.048C140.198 83.7653 143.473 82.624 147.76 82.624C149.937 82.624 151.782 82.88 153.297 83.392C154.833 83.904 156.07 84.4907 157.009 85.152C157.969 85.8133 158.683 86.3573 159.153 86.784L155.569 93.312C155.27 92.8853 154.769 92.3627 154.065 91.744C153.361 91.1253 152.497 90.5813 151.473 90.112C150.449 89.6427 149.318 89.408 148.081 89.408C146.353 89.408 145.051 89.9093 144.177 90.912C143.323 91.8933 142.897 93.056 142.897 94.4C142.897 96.128 143.526 97.536 144.785 98.624C146.065 99.712 147.611 100.8 149.425 101.888C151.43 103.083 153.286 104.288 154.993 105.504C156.699 106.699 158.075 108.139 159.121 109.824C160.166 111.488 160.689 113.621 160.689 116.224C160.689 120.128 159.462 123.189 157.009 125.408C154.555 127.605 151.195 128.704 146.929 128.704ZM178.554 128.704C175.418 128.704 172.676 128.181 170.33 127.136C167.983 126.091 166.266 124.992 165.178 123.84L168.442 117.12C168.89 117.696 169.594 118.347 170.554 119.072C171.535 119.797 172.666 120.437 173.946 120.992C175.247 121.525 176.591 121.792 177.978 121.792C179.578 121.792 180.964 121.344 182.138 120.448C183.332 119.552 183.93 118.229 183.93 116.48C183.93 114.752 183.311 113.387 182.074 112.384C180.858 111.36 179.194 110.208 177.082 108.928C175.354 107.883 173.658 106.773 171.994 105.6C170.33 104.405 168.943 102.955 167.834 101.248C166.746 99.52 166.202 97.344 166.202 94.72C166.202 91.2 167.322 88.3093 169.562 86.048C171.823 83.7653 175.098 82.624 179.385 82.624C181.562 82.624 183.407 82.88 184.922 83.392C186.458 83.904 187.695 84.4907 188.634 85.152C189.594 85.8133 190.308 86.3573 190.778 86.784L187.194 93.312C186.895 92.8853 186.394 92.3627 185.69 91.744C184.986 91.1253 184.122 90.5813 183.098 90.112C182.074 89.6427 180.943 89.408 179.706 89.408C177.978 89.408 176.676 89.9093 175.802 90.912C174.948 91.8933 174.522 93.056 174.522 94.4C174.522 96.128 175.151 97.536 176.41 98.624C177.69 99.712 179.236 100.8 181.05 101.888C183.055 103.083 184.911 104.288 186.618 105.504C188.324 106.699 189.7 108.139 190.746 109.824C191.791 111.488 192.314 113.621 192.314 116.224C192.314 120.128 191.087 123.189 188.634 125.408C186.18 127.605 182.82 128.704 178.554 128.704ZM215.683 128.768C211.651 128.768 208.248 127.819 205.475 125.92C202.723 124 200.632 121.312 199.203 117.856C197.773 114.4 197.059 110.336 197.059 105.664C197.059 101.035 197.763 96.992 199.171 93.536C200.579 90.08 202.648 87.4027 205.379 85.504C208.131 83.584 211.501 82.624 215.491 82.624C219.651 82.624 223.107 83.5947 225.859 85.536C228.632 87.4773 230.712 90.176 232.099 93.632C233.485 97.088 234.179 101.099 234.179 105.664C234.179 110.336 233.464 114.4 232.035 117.856C230.605 121.312 228.515 124 225.763 125.92C223.011 127.819 219.651 128.768 215.683 128.768ZM215.683 121.92C218.477 121.92 220.835 120.576 222.755 117.888C224.696 115.179 225.667 111.04 225.667 105.472C225.667 100.117 224.76 96.0853 222.947 93.376C221.155 90.6453 218.669 89.28 215.491 89.28C212.397 89.28 209.976 90.6453 208.227 93.376C206.499 96.1067 205.635 100.16 205.635 105.536C205.635 111.104 206.552 115.232 208.387 117.92C210.243 120.587 212.675 121.92 215.683 121.92ZM242.935 112.32C242.636 110.763 242.487 109.376 242.487 108.16C242.487 106.176 242.764 104.565 243.319 103.328C243.873 102.069 244.577 101.045 245.431 100.256C246.284 99.4453 247.159 98.7093 248.055 98.048C249.249 97.1733 250.305 96.2453 251.222 95.264C252.14 94.2613 252.599 92.8213 252.599 90.944C252.599 89.1093 252.055 87.7227 250.967 86.784C249.879 85.8453 248.481 85.376 246.775 85.376C244.769 85.376 243.105 85.9093 241.783 86.976C240.46 88.0427 239.521 89.1093 238.967 90.176L234.422 83.968C235.511 82.624 237.132 81.344 239.286 80.128C241.463 78.8907 244.023 78.272 246.967 78.272C251.703 78.272 255.212 79.3067 257.495 81.376C259.777 83.4453 260.919 86.3573 260.919 90.112C260.919 91.7547 260.663 93.1307 260.151 94.24C259.66 95.328 259.009 96.2773 258.199 97.088C257.388 97.8773 256.524 98.6453 255.607 99.392C254.625 100.181 253.676 101.035 252.759 101.952C251.841 102.869 251.084 104 250.487 105.344C249.889 106.667 249.591 108.352 249.591 110.4V112.32H242.935ZM242.871 128V118.464H250.103V128H242.871Z" fill="#FFD54F"/>
<path d="M293.333 105L298.444 110.111L308.667 99.8889M324 105C324 108.02 323.405 111.011 322.249 113.802C321.093 116.592 319.399 119.128 317.263 121.263C315.128 123.399 312.592 125.093 309.802 126.249C307.011 127.405 304.02 128 301 128C297.98 128 294.989 127.405 292.198 126.249C289.408 125.093 286.872 123.399 284.737 121.263C282.601 119.128 280.907 116.592 279.751 113.802C278.595 111.011 278 108.02 278 105C278 98.9 280.423 93.0499 284.737 88.7365C289.05 84.4232 294.9 82 301 82C307.1 82 312.95 84.4232 317.263 88.7365C321.577 93.0499 324 98.9 324 105Z" stroke="#FFD54F" stroke-width="7" stroke-linecap="round" stroke-linejoin="round"/>
</svg>
